<?xml version="1.0" encoding="UTF-8"?>
<svg xmlns="http://www.w3.org/2000/svg" xmlns:xlink="http://www.w3.org/1999/xlink" width="10pt" height="10pt" viewBox="0 0 10 10" version="1.1">
<g id="surface1">
<path style=" stroke:none;fill-rule:nonzero;fill:rgb(0%,0%,0%);fill-opacity:1;" d="M 3.582031 2.691406 C 3.5625 2.691406 3.539062 2.660156 3.53125 2.640625 C 3.523438 2.609375 3.53125 2.574219 3.53125 2.53125 L 3.734375 2.53125 C 3.742188 2.484375 3.75 2.445312 3.753906 2.402344 C 3.773438 2.25 3.859375 2.144531 4.003906 2.089844 C 4.027344 2.078125 4.050781 2.070312 4.074219 2.058594 L 4.195312 2.058594 C 4.390625 2.117188 4.515625 2.242188 4.53125 2.453125 L 4.542969 2.535156 L 4.753906 2.535156 L 4.753906 2.679688 C 4.746094 2.683594 4.742188 2.6875 4.738281 2.6875 C 4.351562 2.691406 3.96875 2.691406 3.582031 2.691406 Z M 6.691406 6.875 C 6.554688 7.28125 6.773438 7.734375 7.1875 7.882812 C 7.25 7.90625 7.320312 7.921875 7.382812 7.9375 L 7.574219 7.9375 C 7.609375 7.929688 7.644531 7.917969 7.679688 7.910156 C 8.023438 7.824219 8.28125 7.503906 8.289062 7.152344 C 8.296875 6.789062 8.054688 6.453125 7.710938 6.351562 C 7.28125 6.226562 6.832031 6.460938 6.691406 6.875 Z M 7.070312 7.136719 C 7.070312 6.921875 7.253906 6.734375 7.472656 6.738281 C 7.683594 6.742188 7.867188 6.921875 7.867188 7.125 C 7.867188 7.335938 7.6875 7.515625 7.476562 7.515625 C 7.257812 7.515625 7.074219 7.34375 7.070312 7.136719 Z M 1.890625 7.132812 C 1.890625 7.503906 2.132812 7.816406 2.5 7.914062 C 2.523438 7.921875 2.542969 7.929688 2.5625 7.9375 L 2.875 7.9375 C 3.023438 7.882812 3.171875 7.828125 3.289062 7.710938 C 3.550781 7.457031 3.605469 7.054688 3.417969 6.734375 C 3.234375 6.414062 2.867188 6.261719 2.5 6.355469 C 2.148438 6.445312 1.890625 6.769531 1.890625 7.132812 Z M 2.308594 7.140625 C 2.3125 6.921875 2.492188 6.746094 2.707031 6.75 C 2.929688 6.75 3.105469 6.921875 3.105469 7.140625 C 3.105469 7.351562 2.929688 7.515625 2.699219 7.515625 C 2.492188 7.515625 2.308594 7.339844 2.308594 7.140625 Z M 9.367188 4.914062 C 9.363281 4.355469 9.363281 3.796875 9.359375 3.234375 C 9.359375 3.054688 9.210938 2.90625 9.023438 2.90625 C 8.652344 2.90625 8.28125 2.910156 7.90625 2.910156 L 2.449219 2.917969 C 2.242188 2.917969 2.097656 3.011719 2.007812 3.191406 C 1.953125 3.296875 1.90625 3.414062 1.859375 3.523438 C 1.691406 3.921875 1.523438 4.320312 1.351562 4.714844 C 1.335938 4.757812 1.304688 4.804688 1.265625 4.820312 C 1.042969 4.898438 0.929688 5.058594 0.882812 5.273438 C 0.820312 5.5625 0.765625 5.855469 0.710938 6.148438 C 0.679688 6.328125 0.652344 6.507812 0.625 6.6875 L 0.625 6.890625 C 0.683594 7.015625 0.773438 7.109375 0.921875 7.117188 C 1.125 7.125 1.328125 7.132812 1.53125 7.136719 C 1.601562 7.136719 1.632812 7.105469 1.636719 7.027344 C 1.679688 6.511719 2.148438 6.085938 2.667969 6.078125 C 3.242188 6.0625 3.703125 6.460938 3.78125 7.027344 C 3.800781 7.136719 3.800781 7.140625 3.917969 7.136719 C 4.707031 7.136719 5.496094 7.128906 6.285156 7.128906 C 6.371094 7.128906 6.394531 7.101562 6.402344 7.023438 C 6.449219 6.53125 6.882812 6.117188 7.367188 6.078125 C 7.984375 6.027344 8.421875 6.460938 8.523438 6.898438 C 8.539062 6.976562 8.554688 7.054688 8.570312 7.148438 C 8.757812 7.136719 8.945312 7.132812 9.125 7.117188 C 9.214844 7.109375 9.28125 7.058594 9.324219 6.984375 C 9.335938 6.957031 9.355469 6.929688 9.375 6.90625 L 9.375 5.015625 C 9.375 4.984375 9.367188 4.949219 9.367188 4.914062 Z M 3.496094 4.671875 C 3.496094 4.75 3.46875 4.765625 3.394531 4.765625 C 2.929688 4.761719 2.457031 4.761719 1.988281 4.761719 C 1.917969 4.757812 1.839844 4.761719 1.753906 4.761719 C 1.765625 4.71875 1.765625 4.703125 1.773438 4.6875 L 2.332031 3.320312 C 2.351562 3.265625 2.386719 3.253906 2.4375 3.253906 C 2.757812 3.253906 3.078125 3.257812 3.398438 3.253906 C 3.472656 3.253906 3.496094 3.273438 3.492188 3.347656 C 3.492188 3.789062 3.492188 4.234375 3.496094 4.671875 Z M 7.199219 4.855469 L 6.429688 4.855469 L 6.429688 5.710938 C 6.332031 5.730469 6.226562 5.738281 6.128906 5.738281 C 6.03125 5.738281 5.929688 5.726562 5.835938 5.710938 L 5.835938 4.855469 L 5.0625 4.855469 C 5.042969 4.757812 5.035156 4.660156 5.035156 4.5625 C 5.035156 4.464844 5.042969 4.367188 5.0625 4.273438 L 5.835938 4.273438 L 5.835938 3.414062 C 5.929688 3.398438 6.03125 3.386719 6.132812 3.386719 C 6.230469 3.386719 6.332031 3.398438 6.429688 3.414062 L 6.429688 4.273438 L 7.199219 4.273438 C 7.21875 4.367188 7.226562 4.464844 7.226562 4.566406 C 7.226562 4.664062 7.21875 4.757812 7.199219 4.855469 Z M 7.199219 4.855469 "/>
</g>
</svg>
